<svg width="398" height="224" viewBox="0 0 398 224" fill="none" xmlns="http://www.w3.org/2000/svg">
<path d="M192.525 86.875V139H183.975V103.3L168.075 139H162.15L146.175 103.3V139H137.625V86.875H146.85L165.15 127.75L183.375 86.875H192.525ZM208.113 92.2C206.563 92.2 205.263 91.675 204.213 90.625C203.163 89.575 202.638 88.275 202.638 86.725C202.638 85.175 203.163 83.875 204.213 82.825C205.263 81.775 206.563 81.25 208.113 81.25C209.613 81.25 210.888 81.775 211.938 82.825C212.988 83.875 213.513 85.175 213.513 86.725C213.513 88.275 212.988 89.575 211.938 90.625C210.888 91.675 209.613 92.2 208.113 92.2ZM212.313 97.675V139H203.763V97.675H212.313ZM244.388 97C247.638 97 250.538 97.675 253.088 99.025C255.688 100.375 257.713 102.375 259.163 105.025C260.613 107.675 261.338 110.875 261.338 114.625V139H252.863V115.9C252.863 112.2 251.938 109.375 250.088 107.425C248.238 105.425 245.713 104.425 242.513 104.425C239.313 104.425 236.763 105.425 234.863 107.425C233.013 109.375 232.088 112.2 232.088 115.9V139H223.538V97.675H232.088V102.4C233.488 100.7 235.263 99.375 237.413 98.425C239.613 97.475 241.938 97 244.388 97ZM269.394 118.15C269.394 114 270.244 110.325 271.944 107.125C273.694 103.925 276.044 101.45 278.994 99.7C281.994 97.9 285.319 97 288.969 97C291.669 97 294.319 97.6 296.919 98.8C299.569 99.95 301.669 101.5 303.219 103.45V83.5H311.844V139H303.219V132.775C301.819 134.775 299.869 136.425 297.369 137.725C294.919 139.025 292.094 139.675 288.894 139.675C285.294 139.675 281.994 138.775 278.994 136.975C276.044 135.125 273.694 132.575 271.944 129.325C270.244 126.025 269.394 122.3 269.394 118.15ZM303.219 118.3C303.219 115.45 302.619 112.975 301.419 110.875C300.269 108.775 298.744 107.175 296.844 106.075C294.944 104.975 292.894 104.425 290.694 104.425C288.494 104.425 286.444 104.975 284.544 106.075C282.644 107.125 281.094 108.7 279.894 110.8C278.744 112.85 278.169 115.3 278.169 118.15C278.169 121 278.744 123.5 279.894 125.65C281.094 127.8 282.644 129.45 284.544 130.6C286.494 131.7 288.544 132.25 290.694 132.25C292.894 132.25 294.944 131.7 296.844 130.6C298.744 129.5 300.269 127.9 301.419 125.8C302.619 123.65 303.219 121.15 303.219 118.3Z" fill="white"/>
<path d="M145.824 146.816V147.744H142.72V158H141.6V147.744H138.48V146.816H145.824ZM155.497 153.184C155.497 153.568 155.486 153.861 155.465 154.064H148.217C148.249 154.725 148.409 155.291 148.697 155.76C148.985 156.229 149.363 156.587 149.833 156.832C150.302 157.067 150.814 157.184 151.369 157.184C152.094 157.184 152.702 157.008 153.193 156.656C153.694 156.304 154.025 155.829 154.185 155.232H155.369C155.155 156.085 154.697 156.784 153.993 157.328C153.299 157.861 152.425 158.128 151.369 158.128C150.547 158.128 149.811 157.947 149.161 157.584C148.51 157.211 147.998 156.688 147.625 156.016C147.262 155.333 147.081 154.539 147.081 153.632C147.081 152.725 147.262 151.931 147.625 151.248C147.987 150.565 148.494 150.043 149.145 149.68C149.795 149.317 150.537 149.136 151.369 149.136C152.201 149.136 152.926 149.317 153.545 149.68C154.174 150.043 154.654 150.533 154.985 151.152C155.326 151.76 155.497 152.437 155.497 153.184ZM154.361 153.152C154.371 152.501 154.238 151.947 153.961 151.488C153.694 151.029 153.326 150.683 152.857 150.448C152.387 150.213 151.875 150.096 151.321 150.096C150.489 150.096 149.779 150.363 149.193 150.896C148.606 151.429 148.281 152.181 148.217 153.152H154.361ZM157.034 153.632C157.034 152.725 157.215 151.936 157.578 151.264C157.94 150.581 158.442 150.059 159.082 149.696C159.722 149.323 160.452 149.136 161.274 149.136C162.351 149.136 163.236 149.403 163.93 149.936C164.634 150.469 165.087 151.195 165.29 152.112H164.09C163.94 151.483 163.615 150.992 163.114 150.64C162.623 150.277 162.01 150.096 161.274 150.096C160.687 150.096 160.159 150.229 159.69 150.496C159.22 150.763 158.847 151.163 158.57 151.696C158.303 152.219 158.17 152.864 158.17 153.632C158.17 154.4 158.303 155.051 158.57 155.584C158.847 156.117 159.22 156.517 159.69 156.784C160.159 157.051 160.687 157.184 161.274 157.184C162.01 157.184 162.623 157.008 163.114 156.656C163.615 156.293 163.94 155.792 164.09 155.152H165.29C165.087 156.048 164.634 156.768 163.93 157.312C163.226 157.856 162.34 158.128 161.274 158.128C160.452 158.128 159.722 157.947 159.082 157.584C158.442 157.211 157.94 156.688 157.578 156.016C157.215 155.333 157.034 154.539 157.034 153.632ZM171.454 149.104C172.499 149.104 173.353 149.429 174.014 150.08C174.675 150.72 175.006 151.653 175.006 152.88V158H173.902V153.008C173.902 152.059 173.662 151.333 173.182 150.832C172.713 150.331 172.067 150.08 171.246 150.08C170.403 150.08 169.731 150.347 169.23 150.88C168.729 151.413 168.478 152.197 168.478 153.232V158H167.358V149.264H168.478V150.752C168.755 150.219 169.155 149.813 169.678 149.536C170.201 149.248 170.793 149.104 171.454 149.104ZM181.307 158.128C180.486 158.128 179.744 157.947 179.083 157.584C178.432 157.211 177.915 156.688 177.531 156.016C177.158 155.333 176.971 154.539 176.971 153.632C176.971 152.725 177.163 151.936 177.547 151.264C177.931 150.581 178.454 150.059 179.115 149.696C179.776 149.323 180.518 149.136 181.339 149.136C182.16 149.136 182.902 149.323 183.563 149.696C184.235 150.059 184.758 150.581 185.131 151.264C185.515 151.936 185.707 152.725 185.707 153.632C185.707 154.528 185.515 155.317 185.131 156C184.747 156.683 184.219 157.211 183.547 157.584C182.875 157.947 182.128 158.128 181.307 158.128ZM181.307 157.152C181.883 157.152 182.416 157.024 182.907 156.768C183.398 156.501 183.792 156.107 184.091 155.584C184.4 155.051 184.555 154.4 184.555 153.632C184.555 152.864 184.406 152.219 184.107 151.696C183.808 151.163 183.414 150.768 182.923 150.512C182.432 150.245 181.899 150.112 181.323 150.112C180.747 150.112 180.214 150.245 179.723 150.512C179.232 150.768 178.838 151.163 178.539 151.696C178.251 152.219 178.107 152.864 178.107 153.632C178.107 154.4 178.251 155.051 178.539 155.584C178.838 156.107 179.227 156.501 179.707 156.768C180.198 157.024 180.731 157.152 181.307 157.152ZM188.869 146.16V158H187.749V146.16H188.869ZM195.229 158.128C194.408 158.128 193.666 157.947 193.005 157.584C192.354 157.211 191.837 156.688 191.453 156.016C191.08 155.333 190.893 154.539 190.893 153.632C190.893 152.725 191.085 151.936 191.469 151.264C191.853 150.581 192.376 150.059 193.037 149.696C193.698 149.323 194.44 149.136 195.261 149.136C196.082 149.136 196.824 149.323 197.485 149.696C198.157 150.059 198.68 150.581 199.053 151.264C199.437 151.936 199.629 152.725 199.629 153.632C199.629 154.528 199.437 155.317 199.053 156C198.669 156.683 198.141 157.211 197.469 157.584C196.797 157.947 196.05 158.128 195.229 158.128ZM195.229 157.152C195.805 157.152 196.338 157.024 196.829 156.768C197.32 156.501 197.714 156.107 198.013 155.584C198.322 155.051 198.477 154.4 198.477 153.632C198.477 152.864 198.328 152.219 198.029 151.696C197.73 151.163 197.336 150.768 196.845 150.512C196.354 150.245 195.821 150.112 195.245 150.112C194.669 150.112 194.136 150.245 193.645 150.512C193.154 150.768 192.76 151.163 192.461 151.696C192.173 152.219 192.029 152.864 192.029 153.632C192.029 154.4 192.173 155.051 192.461 155.584C192.76 156.107 193.149 156.501 193.629 156.768C194.12 157.024 194.653 157.152 195.229 157.152ZM205.335 149.136C206.156 149.136 206.871 149.328 207.479 149.712C208.087 150.096 208.524 150.581 208.791 151.168V149.264H209.911V158.224C209.911 159.024 209.735 159.733 209.383 160.352C209.041 160.971 208.561 161.445 207.943 161.776C207.324 162.117 206.62 162.288 205.831 162.288C204.711 162.288 203.777 162.021 203.031 161.488C202.295 160.955 201.836 160.229 201.655 159.312H202.759C202.951 159.92 203.313 160.405 203.847 160.768C204.391 161.131 205.052 161.312 205.831 161.312C206.396 161.312 206.903 161.189 207.351 160.944C207.799 160.709 208.151 160.357 208.407 159.888C208.663 159.419 208.791 158.864 208.791 158.224V156.064C208.513 156.661 208.071 157.157 207.463 157.552C206.865 157.936 206.156 158.128 205.335 158.128C204.535 158.128 203.815 157.941 203.175 157.568C202.545 157.195 202.049 156.667 201.687 155.984C201.335 155.301 201.159 154.512 201.159 153.616C201.159 152.72 201.335 151.936 201.687 151.264C202.049 150.581 202.545 150.059 203.175 149.696C203.815 149.323 204.535 149.136 205.335 149.136ZM208.791 153.632C208.791 152.928 208.647 152.309 208.359 151.776C208.071 151.243 207.676 150.832 207.175 150.544C206.684 150.256 206.14 150.112 205.543 150.112C204.924 150.112 204.369 150.251 203.879 150.528C203.388 150.805 202.999 151.211 202.711 151.744C202.433 152.267 202.295 152.891 202.295 153.616C202.295 154.331 202.433 154.96 202.711 155.504C202.999 156.037 203.388 156.448 203.879 156.736C204.369 157.013 204.924 157.152 205.543 157.152C206.14 157.152 206.684 157.008 207.175 156.72C207.676 156.432 208.071 156.021 208.359 155.488C208.647 154.955 208.791 154.336 208.791 153.632ZM213.028 147.616C212.804 147.616 212.612 147.536 212.452 147.376C212.292 147.216 212.212 147.019 212.212 146.784C212.212 146.549 212.292 146.357 212.452 146.208C212.612 146.048 212.804 145.968 213.028 145.968C213.252 145.968 213.444 146.048 213.604 146.208C213.764 146.357 213.844 146.549 213.844 146.784C213.844 147.019 213.764 147.216 213.604 147.376C213.444 147.536 213.252 147.616 213.028 147.616ZM213.588 149.264V158H212.468V149.264H213.588ZM215.612 153.616C215.612 152.72 215.788 151.936 216.14 151.264C216.502 150.581 216.998 150.059 217.628 149.696C218.268 149.323 218.988 149.136 219.788 149.136C220.62 149.136 221.334 149.328 221.932 149.712C222.54 150.096 222.977 150.587 223.244 151.184V149.264H224.364V158H223.244V156.064C222.966 156.661 222.524 157.157 221.916 157.552C221.318 157.936 220.604 158.128 219.772 158.128C218.982 158.128 218.268 157.941 217.628 157.568C216.998 157.195 216.502 156.667 216.14 155.984C215.788 155.301 215.612 154.512 215.612 153.616ZM223.244 153.632C223.244 152.928 223.1 152.309 222.812 151.776C222.524 151.243 222.129 150.832 221.628 150.544C221.137 150.256 220.593 150.112 219.996 150.112C219.377 150.112 218.822 150.251 218.332 150.528C217.841 150.805 217.452 151.211 217.164 151.744C216.886 152.267 216.748 152.891 216.748 153.616C216.748 154.331 216.886 154.96 217.164 155.504C217.452 156.037 217.841 156.448 218.332 156.736C218.822 157.013 219.377 157.152 219.996 157.152C220.593 157.152 221.137 157.008 221.628 156.72C222.129 156.432 222.524 156.021 222.812 155.488C223.1 154.955 223.244 154.336 223.244 153.632Z" fill="white"/>
<path d="M362.05 128.35H340.225L336.475 139H327.55L346.225 86.8H356.125L374.8 139H365.8L362.05 128.35ZM359.65 121.375L351.175 97.15L342.625 121.375H359.65ZM391.47 86.875V139H382.92V86.875H391.47Z" fill="url(#paint0_linear_16_64)"/>
<path d="M114.714 42.2071C115.223 43.0519 115.648 44.0431 115.991 45.1806C116.272 46.112 116.465 47.1255 116.571 48.2212C116.631 48.8571 116.661 49.8886 116.661 51.3158C116.648 88.4246 116.421 125.697 116.639 162.276C116.652 164.37 116.662 166.941 116.67 169.988C116.675 171.743 116.602 173.086 116.451 174.019C115.883 177.513 114.495 180.598 112.289 183.275C109.478 186.683 105.855 189.026 101.418 190.302C100.728 190.502 99.8039 190.674 98.6471 190.82C96.3829 191.107 94.1282 191.127 91.8828 190.88C89.6236 190.632 87.4228 190.204 85.2803 189.596C83.124 188.985 81.0335 188.19 79.0088 187.211C75.005 185.275 71.4341 182.745 68.2961 179.62C66.5327 177.863 64.931 175.863 63.4912 173.62C62.37 171.874 61.4699 170.048 60.7911 168.141C60.5338 167.417 60.3448 166.752 60.2241 166.146C60.2084 166.068 60.1691 165.996 60.1114 165.94C60.0536 165.884 59.9801 165.847 59.9005 165.833C59.6669 165.792 59.4418 165.737 59.2251 165.667C58.0831 165.296 57.0178 164.872 56.0292 164.394C54.3242 163.571 52.7354 162.606 51.2629 161.497C46.978 158.273 43.8222 154.229 41.7955 149.365C41.1899 147.911 40.7411 146.505 40.4492 145.146C40.375 144.799 40.2661 144.205 40.1227 143.363C40.0227 142.777 39.946 142.179 39.8926 141.571C39.7728 140.225 39.7412 138.688 39.7976 136.961C39.8184 136.326 39.9401 135.766 39.9653 135.119C39.9672 135.074 39.9586 135.029 39.9404 134.988C39.9221 134.946 39.8946 134.909 39.8599 134.88C37.9124 133.215 36.2341 131.273 34.8249 129.052C33.3316 126.7 32.2159 124.199 31.4777 121.548C31.1461 120.355 30.8651 118.917 30.6345 117.235C30.5949 116.945 30.5732 116.612 30.5692 116.238C30.5648 115.789 30.449 115.395 30.4401 114.912C30.3866 112.04 30.5583 109.622 30.9552 107.659C32.203 101.483 35.2579 96.3555 40.1197 92.276C40.4641 91.9873 40.7778 91.7481 41.0608 91.5585C41.0984 91.5333 41.1285 91.4988 41.1479 91.4585C41.1672 91.4182 41.175 91.3737 41.1706 91.3296C41.089 90.4356 40.9688 89.8246 40.9658 88.9919C40.9608 87.9778 40.9623 87.0533 40.9702 86.2181C40.9762 85.6829 41.089 85.1842 41.1395 84.6592C41.3403 82.6107 41.8831 80.5452 42.7678 78.4627C44.0493 75.4449 45.8236 72.8049 48.0908 70.5425C48.7459 69.8892 49.5143 69.2003 50.396 68.476C52.3391 66.8792 54.6398 65.5929 56.9673 64.5692C58.1073 64.0675 59.3023 63.6786 60.5521 63.4025C60.6392 63.383 60.7372 63.3699 60.846 63.3631C61.2602 63.3383 61.131 62.9519 61.1934 62.666C61.5654 60.9792 61.9949 59.4713 62.4818 58.1423C63.0399 56.6198 63.7836 55.0778 64.7128 53.5165C67.6712 48.5494 71.8838 44.5098 76.9827 41.5596C79.898 39.8718 82.9771 38.5029 86.2199 37.4529C88.9393 36.573 91.5939 35.9518 94.1836 35.5892C95.9203 35.3461 97.3433 35.2042 98.4527 35.1633C99.6921 35.1181 101.364 35.0948 102.653 35.2348C103.605 35.3388 104.442 35.4603 105.164 35.5994C105.984 35.7569 106.863 36.0213 107.8 36.3927C110.785 37.574 113.09 39.5121 114.714 42.2071ZM111.931 98.3806C111.933 90.6271 111.933 74.2792 111.931 49.3369C111.931 48.7127 111.812 48.0915 111.704 47.5067C111.63 47.11 111.521 46.7085 111.374 46.3021C110.503 43.8861 108.854 42.1167 106.425 40.9937C105.297 40.4726 104.211 40.1348 103.167 39.9802C101.073 39.6696 98.6516 39.7614 96.4013 40.0298C94.9119 40.2067 93.1945 40.5178 91.249 40.9631C90.773 41.072 90.0768 41.2635 89.1605 41.5377C87.7899 41.947 86.6222 42.3349 85.6573 42.7015C84.5381 43.1263 83.4041 43.5988 82.2552 44.119C77.5408 46.254 73.1708 49.5527 70.1723 53.7017C67.7251 57.0869 66.1774 60.8528 65.5292 64.9994C65.3739 65.9891 65.2977 66.5447 65.3006 66.6662C65.3011 66.689 65.295 66.7114 65.2832 66.731C65.2715 66.7506 65.2543 66.7665 65.2338 66.7771C65.1893 66.8004 64.8642 66.8758 64.2586 67.0031C63.2047 67.2238 62.1201 67.5179 61.0048 67.8854C57.3968 69.0744 54.2593 70.9722 51.5924 73.5787C48.4129 76.686 46.4585 80.4436 45.7291 84.8517C45.6054 85.5964 45.5471 86.3946 45.554 87.2462C45.5599 87.919 45.5708 88.7221 45.5866 89.6554C45.5876 89.6787 45.6059 89.7356 45.6416 89.826C45.6583 89.8696 45.6688 89.9157 45.6727 89.9631C45.7549 91.0559 45.9335 92.119 46.2086 93.1525C46.2158 93.1801 46.2142 93.2091 46.2038 93.2356C46.1934 93.262 46.1748 93.2845 46.1507 93.2998C43.4996 94.9934 41.2473 97.0885 39.3938 99.5852C38.429 100.884 37.5097 102.526 36.6359 104.51C36.2865 105.304 35.9872 106.191 35.7378 107.17C35.4944 108.129 35.3167 109.047 35.2049 109.925C35.1525 110.337 35.1188 110.597 35.104 110.704C35.0545 111.077 35.0273 111.337 35.0223 111.485C34.96 113.185 34.9714 114.594 35.0565 115.714C35.3524 119.632 36.5903 123.291 38.7704 126.691C39.2345 127.417 39.8055 128.181 40.4834 128.985C41.852 130.608 43.2532 132.094 44.8474 133.367C44.8815 133.395 44.9069 133.431 44.9206 133.472C44.9343 133.513 44.9357 133.558 44.9246 133.599C44.6812 134.49 44.5773 135.325 44.4466 136.488C44.3338 137.511 44.3858 138.706 44.3724 139.52C44.3635 140 44.3927 140.538 44.46 141.132C44.5382 141.833 44.6074 142.366 44.6678 142.733C45.0904 145.297 45.928 147.712 47.1809 149.978C48.2526 151.918 49.5479 153.671 51.067 155.235C54.4167 158.683 58.4849 160.977 63.2715 162.119C63.3298 162.132 63.3894 162.141 63.4496 162.145C63.6703 162.159 63.8296 162.183 63.9276 162.216C63.9951 162.239 64.0548 162.281 64.1001 162.335C64.1454 162.39 64.1746 162.456 64.1844 162.525C64.4486 164.44 64.9656 166.271 65.7355 168.02C66.7627 170.351 68.063 172.376 69.5445 174.21C70.1857 175.003 71.1382 176.018 72.4019 177.256C72.9283 177.771 73.5488 178.314 74.2633 178.884C75.2271 179.652 75.8822 180.154 76.2286 180.39C79.044 182.308 82.0968 183.77 85.3872 184.777C87.0705 185.291 88.6548 185.675 90.1402 185.927C91.4969 186.158 92.9308 186.3 94.4419 186.355C96.7605 186.438 99.0172 186.133 101.212 185.44C103.506 184.716 105.549 183.515 107.343 181.838C108.792 180.482 109.939 178.909 110.782 177.12C110.937 176.791 111.082 176.413 111.215 175.987C111.408 175.374 111.521 174.985 111.554 174.822C111.701 174.078 111.807 173.407 111.871 172.808C111.912 172.421 111.932 171.743 111.932 170.772C111.93 164.063 111.928 142.17 111.925 105.095C111.925 105.048 111.915 105.002 111.897 104.958C111.879 104.915 111.852 104.876 111.818 104.842L92.0194 85.3912C91.932 85.3054 91.8828 85.1889 91.8828 85.0675V66.4227C91.8829 66.3985 91.8752 66.3748 91.8609 66.3549C91.8465 66.3351 91.8262 66.32 91.8027 66.3119C89.8918 65.6527 88.4712 64.4826 87.541 62.8017C87.2718 62.3146 87.0739 61.7993 86.9473 61.2558C86.7949 60.6015 86.7137 60.0498 86.7038 59.6006C86.6514 57.0796 87.5484 55.0229 89.395 53.4304C90.391 52.5715 91.4805 52.0742 92.7601 51.8321C94.1465 51.5706 95.4864 51.6571 96.7798 52.0917C97.8881 52.464 98.8772 53.1008 99.747 54.0021C100.91 55.2086 101.594 56.6251 101.798 58.2517C101.83 58.5093 101.836 59.0955 101.816 60.0104C101.814 60.0685 101.805 60.1258 101.79 60.181C101.678 60.5617 101.705 60.8402 101.602 61.1902C101.45 61.7103 101.349 62.0292 101.3 62.1469C100.417 64.2731 98.8747 65.6824 96.6729 66.3746C96.6601 66.3783 96.6488 66.386 96.6408 66.3965C96.6328 66.407 96.6284 66.4198 96.6284 66.4329V83.16C96.6283 83.2261 96.6416 83.2915 96.6673 83.3526C96.693 83.4136 96.7307 83.4691 96.7783 83.5158L111.916 98.3865C111.917 98.3875 111.919 98.3883 111.92 98.3886C111.922 98.3888 111.924 98.3887 111.925 98.3881C111.927 98.3875 111.928 98.3864 111.929 98.3851C111.93 98.3838 111.931 98.3822 111.931 98.3806ZM97.3973 59.2915C97.3973 58.4761 97.0676 57.6942 96.4808 57.1177C95.894 56.5412 95.0981 56.2173 94.2682 56.2173C93.4383 56.2173 92.6424 56.5412 92.0556 57.1177C91.4688 57.6942 91.1391 58.4761 91.1391 59.2915C91.1391 60.1068 91.4688 60.8887 92.0556 61.4652C92.6424 62.0417 93.4383 62.3656 94.2682 62.3656C95.0981 62.3656 95.894 62.0417 96.4808 61.4652C97.0676 60.8887 97.3973 60.1068 97.3973 59.2915Z" fill="url(#paint1_linear_16_64)"/>
<path d="M94.6022 158.77C94.6021 158.798 94.6115 158.824 94.6287 158.846C94.646 158.867 94.6701 158.882 94.6972 158.888C95.2603 159.014 95.7625 159.213 96.2038 159.486C98.4551 160.882 99.6743 162.853 99.8613 165.398C100.102 168.683 98.3176 171.733 95.2583 173.046C93.761 173.688 92.1831 173.795 90.5246 173.37C89.1214 173.009 87.8696 172.275 86.7691 171.168C85.7152 170.108 85.0497 168.772 84.7726 167.161C84.739 166.961 84.7271 166.451 84.737 165.63C84.7449 165.032 84.8033 164.527 84.9122 164.115C85.1922 163.064 85.6677 162.133 86.3387 161.321C87.3025 160.152 88.4826 159.35 89.8789 158.913C89.9013 158.906 89.9208 158.892 89.9347 158.873C89.9486 158.854 89.9561 158.832 89.9561 158.808V143.201C89.9561 143.143 89.9796 143.087 90.0214 143.046L96.5423 136.417C96.5679 136.391 96.5823 136.356 96.5823 136.319V110.279C96.5823 110.138 96.53 110.002 96.4354 109.897C96.1702 109.602 96.0306 109.447 96.0168 109.433C85.8775 99.4768 80.2136 93.9118 79.0252 92.7383C77.9881 91.7136 77.0841 90.7813 76.3132 89.9413C76.2908 89.9166 76.2613 89.8989 76.2284 89.8903C76.1955 89.8818 76.1605 89.8828 76.1277 89.8931C75.05 90.2324 73.9318 90.3525 72.773 90.2533C72.1673 90.2008 71.5152 90.0302 70.8166 89.7415C70.1862 89.4819 69.6063 89.1406 69.0769 88.7177C67.5222 87.4762 66.5703 85.8535 66.2209 83.8498C66.2031 83.7467 66.1947 83.2358 66.1957 82.3171C66.1957 81.7445 66.2585 81.2404 66.3842 80.8048C66.6178 79.994 66.8221 79.4228 66.9973 79.0913C68.0541 77.0904 70.2317 75.3915 72.6987 75.1261C73.4513 75.0458 74.6834 75.0458 75.5636 75.2675C77.7892 75.8275 79.4517 77.1113 80.5511 79.119C80.7312 79.4486 80.9504 80.0207 81.2087 80.8354C81.2948 81.1067 81.3428 81.3701 81.3527 81.6258C81.3675 82.005 81.4373 82.3098 81.4313 82.6992C81.4046 84.3063 80.9227 85.7486 79.9855 87.0261C79.9735 87.0418 79.9678 87.0615 79.9694 87.0813C79.971 87.1011 79.9799 87.1198 79.9944 87.134L101.181 107.949C101.212 107.979 101.236 108.014 101.252 108.053C101.269 108.092 101.277 108.134 101.277 108.176V138.081C101.277 138.172 101.241 138.259 101.176 138.326L94.6912 144.916C94.6341 144.975 94.6023 145.053 94.6022 145.135V158.77ZM76.9515 82.6496C76.9515 81.8308 76.6204 81.0455 76.0311 80.4666C75.4418 79.8876 74.6425 79.5623 73.8091 79.5623C72.9756 79.5623 72.1763 79.8876 71.587 80.4666C70.9977 81.0455 70.6666 81.8308 70.6666 82.6496C70.6666 83.4684 70.9977 84.2537 71.587 84.8326C72.1763 85.4116 72.9756 85.7369 73.8091 85.7369C74.6425 85.7369 75.4418 85.4116 76.0311 84.8326C76.6204 84.2537 76.9515 83.4684 76.9515 82.6496ZM95.4661 165.964C95.4661 165.148 95.1363 164.366 94.5492 163.789C93.9621 163.213 93.1658 162.889 92.3355 162.889C91.5053 162.889 90.709 163.213 90.1219 163.789C89.5348 164.366 89.205 165.148 89.205 165.964C89.205 166.78 89.5348 167.562 90.1219 168.139C90.709 168.716 91.5053 169.04 92.3355 169.04C93.1658 169.04 93.9621 168.716 94.5492 168.139C95.1363 167.562 95.4661 166.78 95.4661 165.964Z" fill="url(#paint2_linear_16_64)"/>
<path d="M65.1819 115.337C65.0216 115.671 64.8761 116.083 64.7128 116.353C64.2962 117.045 63.9286 117.565 63.6099 117.911C61.8069 119.866 59.5546 120.708 56.8531 120.438C56.387 120.39 55.8511 120.26 55.2455 120.047C54.7299 119.865 54.2381 119.62 53.77 119.312C52.1679 118.259 51.0882 116.82 50.5311 114.994C50.2134 113.947 50.1971 112.659 50.3396 111.564C50.3525 111.46 50.4133 111.21 50.5222 110.814C50.5994 110.531 50.6835 110.288 50.7745 110.084C51.5326 108.364 52.7636 107.043 54.4677 106.12C55.196 105.726 56.0228 105.477 56.9481 105.372C57.9099 105.262 58.5616 105.292 59.4774 105.467C60.6402 105.688 61.6896 106.183 62.6258 106.951C63.7509 107.874 64.8479 109.19 65.1908 110.613C65.1998 110.65 65.2211 110.682 65.2513 110.706C65.2814 110.729 65.3187 110.742 65.357 110.741L78.7461 110.75C78.7818 110.75 78.8171 110.759 78.8488 110.775C78.8806 110.791 78.908 110.815 78.9287 110.844C78.9732 110.906 79.1147 111.056 79.3532 111.294C84.6653 116.603 87.6825 119.619 88.4049 120.34C88.6498 120.585 88.6157 120.754 88.6157 121.151C88.6177 125.08 88.6177 128.18 88.6157 130.451C88.6157 130.539 88.5806 130.623 88.5177 130.686L74.8318 144.13C74.8191 144.143 74.811 144.159 74.8088 144.177C74.8067 144.195 74.8106 144.212 74.8199 144.228C75.9312 146.086 76.2187 148.076 75.6823 150.2C75.4419 151.147 74.999 152.028 74.3538 152.841C72.9214 154.642 70.7216 155.652 68.397 155.715C67.6222 155.736 66.7786 155.605 65.8662 155.32C65.024 155.057 64.268 154.66 63.5981 154.128C61.4704 152.438 60.516 150.194 60.7347 147.398C60.8109 146.437 61.1018 145.473 61.6075 144.506C62.6109 142.59 64.4219 141.229 66.5327 140.805C67.452 140.62 68.4134 140.593 69.4168 140.722C69.7028 140.759 69.9873 140.825 70.2703 140.92C70.7404 141.078 71.0135 141.169 71.0897 141.194C71.1232 141.206 71.1591 141.208 71.1935 141.2C71.2279 141.192 71.2593 141.175 71.2841 141.151L83.8197 128.836C83.853 128.803 83.8717 128.758 83.8716 128.712V122.474C83.8717 122.415 83.8599 122.357 83.837 122.303C83.814 122.248 83.7804 122.199 83.738 122.157L76.7704 115.312C76.7615 115.303 76.7507 115.295 76.7387 115.29C76.7267 115.285 76.7137 115.283 76.7006 115.283L65.3081 115.258C65.2816 115.257 65.2556 115.265 65.2332 115.279C65.2107 115.293 65.1929 115.313 65.1819 115.337ZM61.0197 112.893C61.0197 112.079 60.6907 111.298 60.105 110.723C59.5193 110.147 58.7249 109.824 57.8966 109.824C57.0683 109.824 56.2739 110.147 55.6882 110.723C55.1025 111.298 54.7734 112.079 54.7734 112.893C54.7734 113.706 55.1025 114.487 55.6882 115.062C56.2739 115.638 57.0683 115.961 57.8966 115.961C58.7249 115.961 59.5193 115.638 60.105 115.062C60.6907 114.487 61.0197 113.706 61.0197 112.893ZM71.505 148.09C71.4774 147.271 71.1166 146.497 70.5019 145.938C69.8873 145.379 69.0692 145.08 68.2275 145.107C67.8108 145.121 67.4009 145.214 67.0211 145.382C66.6413 145.549 66.2992 145.788 66.0142 146.084C65.7292 146.38 65.5069 146.728 65.3601 147.108C65.2132 147.487 65.1447 147.891 65.1584 148.296C65.186 149.115 65.5469 149.889 66.1615 150.448C66.7762 151.007 67.5943 151.306 68.4359 151.279C68.8526 151.265 69.2626 151.172 69.6424 151.004C70.0221 150.836 70.3643 150.598 70.6493 150.302C70.9343 150.006 71.1565 149.658 71.3034 149.278C71.4502 148.899 71.5187 148.495 71.505 148.09Z" fill="url(#paint3_linear_16_64)"/>
<defs>
<linearGradient id="paint0_linear_16_64" x1="361.5" y1="56" x2="361.5" y2="169" gradientUnits="userSpaceOnUse">
<stop stop-color="#2B75D8"/>
<stop offset="0.538462" stop-color="#524EBF"/>
<stop offset="1" stop-color="#4C30AF"/>
</linearGradient>
<linearGradient id="paint1_linear_16_64" x1="73.5506" y1="35.1284" x2="73.5506" y2="191.051" gradientUnits="userSpaceOnUse">
<stop stop-color="#2B75D8"/>
<stop offset="0.293269" stop-color="#524EBF"/>
<stop offset="0.860577" stop-color="#4C30AF"/>
</linearGradient>
<linearGradient id="paint2_linear_16_64" x1="83.7365" y1="75.0771" x2="83.7365" y2="173.624" gradientUnits="userSpaceOnUse">
<stop stop-color="#2B75D8"/>
<stop offset="0.293269" stop-color="#524EBF"/>
<stop offset="0.860577" stop-color="#4C30AF"/>
</linearGradient>
<linearGradient id="paint3_linear_16_64" x1="69.4356" y1="105.308" x2="69.4356" y2="155.717" gradientUnits="userSpaceOnUse">
<stop stop-color="#2B75D8"/>
<stop offset="0.293269" stop-color="#524EBF"/>
<stop offset="0.860577" stop-color="#4C30AF"/>
</linearGradient>
</defs>
</svg>
